<?xml version="1.0" encoding="UTF-8" standalone="no"?>
<svg width="225px" height="43px" viewBox="0 0 225 43" version="1.1" xmlns="http://www.w3.org/2000/svg" xmlns:xlink="http://www.w3.org/1999/xlink" xmlns:sketch="http://www.bohemiancoding.com/sketch/ns">
    <!-- Generator: bin/sketchtool 1.4 (305) - http://www.bohemiancoding.com/sketch -->
    <title>logo-color@0.5x</title>
    <desc>Created with bin/sketchtool.</desc>
    <defs></defs>
    <g id="Page-1" stroke="none" stroke-width="1" fill="none" fill-rule="evenodd" sketch:type="MSPage">
        <g id="landing-page" sketch:type="MSArtboardGroup" transform="translate(-185.000000, -31.000000)">
            <g id="Group" sketch:type="MSLayerGroup">
                <g id="logo-color" transform="translate(185.000000, 31.000000)">
                    <text id="edukacja-matematyczna" sketch:type="MSTextLayer" font-family="Lato" font-size="12.9799995" font-weight="normal" fill="#BCCF02">
                        <tspan x="57.8712781" y="39.5535567">edukacja matemat</tspan>
                        <tspan x="161.574984" y="39.5535567" letter-spacing="-0.1687569">y</tspan>
                        <tspan x="167.915697" y="39.5535567">czna</tspan>
                    </text>
                    <g id="Group" sketch:type="MSShapeGroup">
                        <path d="M1.95399252e-14,17.4539786 L12.8287121,17.4539786 C14.3971678,17.4539786 15.4620146,16.6313403 16.2792098,15.3600097 C16.3184149,15.2992281 16.3547999,15.235279 16.389337,15.1680452 C16.4918293,14.9685219 16.7800449,14.2108102 16.8350128,14.0882839 C16.9397408,13.8548399 17.0362291,13.6995593 17.1111371,13.6256871 C17.1100381,13.6267709 17.0410432,13.6574928 16.9783281,13.6574928 C16.7752156,13.6574928 16.5747319,13.5681427 16.4673338,13.4549516 C16.4579762,13.4450893 16.4897352,13.5054284 16.5297869,13.6291562 C16.6408211,13.9721634 16.7069981,14.4280174 16.7956498,15.3605995 C16.8020327,15.4278659 16.8020327,15.4278659 16.8084369,15.4955578 C16.9332446,16.8143327 17.0136663,17.3513426 17.2464059,17.9410986 C17.6844268,19.0476297 18.9681414,20.2678704 20.3612306,20.272414 C22.948283,20.2796739 23.872317,19.0717276 25.358542,14.370644 C25.5316186,13.8250379 26.0547703,12.5231917 26.53323,11.5345855 C26.8379441,10.9049771 27.125658,10.391504 27.3702485,10.0473419 C27.4773501,9.89663968 27.5654627,9.79421495 27.6142279,9.75213458 C27.6026216,9.76214989 27.5746687,9.78133235 27.5204755,9.8077205 C27.3953586,9.86864325 27.2361099,9.91008433 27.045342,9.91008433 L27.045342,7.31949343 C25.6762215,7.31949343 24.9747596,8.30651718 23.9161674,10.4938084 C23.3875866,11.5859762 22.8209317,12.9960788 22.6116436,13.6558402 C21.4533598,17.31961 21.1745437,17.6840932 20.3707953,17.6818377 C20.4679401,17.6821544 20.5145949,17.6958733 20.5204746,17.6990327 C20.4636576,17.6685025 20.3832563,17.6081179 20.2962855,17.5254473 C20.1225932,17.3603434 19.9673086,17.1444416 19.9367813,17.0673233 C19.8230245,16.7790648 19.7556988,16.3295027 19.655819,15.274127 C19.6494129,15.2064154 19.6494129,15.2064154 19.6429391,15.13819 C19.5369954,14.0237036 19.4566207,13.4700495 19.2720058,12.8997368 C18.9217053,11.8175877 18.2094386,11.0669019 16.9783281,11.0669019 C15.5587087,11.0669019 14.7456314,11.8687369 14.1877054,13.1123825 C14.0808803,13.3505011 13.8251641,14.0227727 13.7986,14.0744854 C13.7994519,14.0728271 13.803084,14.0664435 13.8110324,14.05412 C13.4517228,14.6131038 13.1277482,14.8633877 12.8287121,14.8633877 L1.95399252e-14,14.8633877 L1.95399252e-14,17.4539786 L1.95399252e-14,17.4539786 Z" id="Shape" fill="#CDD11C"></path>
                        <path d="M62.8724997,14.3625981 L48.363903,14.3625981 C47.9109698,14.3625981 47.5106744,14.0743178 47.1202527,13.4679984 C47.1256602,13.4763979 47.1268958,13.4785648 47.1254078,13.4756833 C47.0915379,13.4100956 46.805542,12.668541 46.6890785,12.4123351 C46.0874432,11.0888091 45.2195302,10.2451062 43.7262416,10.2451062 C42.4429007,10.2451062 41.6968859,11.0330972 41.3235664,12.1870369 C41.1211796,12.8126194 41.0313845,13.4305198 40.914113,14.6649359 C40.9064179,14.7460996 40.9064179,14.7460996 40.8988037,14.8266777 C40.7855727,16.0245021 40.7093722,16.533972 40.5749026,16.8747704 C40.5315562,16.984733 40.3440038,17.2473184 40.1337057,17.4488719 C40.0261741,17.5519322 39.9244119,17.629014 39.846612,17.6711795 C39.8301423,17.6801057 39.8556343,17.6725483 39.9328384,17.6723232 C38.9263123,17.6754103 38.5784808,17.2215974 37.264671,13.0674082 C36.9444605,12.0539218 36.6081148,11.1125579 36.1901991,10.1913474 C35.3358584,8.30812671 34.5975838,7.31949343 33.1957689,7.31949343 L33.1957689,9.91008433 C32.9627428,9.91008433 32.8056427,9.84747291 32.7195941,9.78297389 C32.7422131,9.7999283 32.8018735,9.86322837 32.8790253,9.96654329 C33.0788166,10.2340865 33.3089033,10.6515209 33.547124,11.1766303 C33.9148522,11.9872124 34.2241336,12.8528289 34.5173923,13.7810106 C36.1594611,18.9731361 37.154573,20.2714501 39.9422697,20.2629 C41.4156358,20.2586036 42.79815,18.9335767 43.2659453,17.7468563 C43.5188265,17.105957 43.6080435,16.50946 43.7462096,15.0478562 C43.7538219,14.9672989 43.7538219,14.9672989 43.7614153,14.8872085 C43.8614649,13.8340716 43.9369375,13.3147282 44.0659134,12.9160604 C44.1171879,12.7575698 44.1629131,12.6705692 44.1709962,12.6620313 C44.0821352,12.7558923 43.9035743,12.8356971 43.7262416,12.8356971 C43.7281212,12.8356971 43.840015,12.9444696 44.0467714,13.399309 C44.1114568,13.5416092 44.4284912,14.3636432 44.5371192,14.5739967 C44.5731005,14.643673 44.6107601,14.7097149 44.6520462,14.7738444 C45.5017165,16.0933704 46.6956291,16.953189 48.363903,16.953189 L62.8724997,16.953189 L62.8724997,14.3625981 L62.8724997,14.3625981 Z" id="Shape" fill="#CDD11C"></path>
                        <path d="M54.4122189,13.920864 C54.4122189,15.9333315 54.0293316,17.7897411 53.2635455,19.4901487 C52.4977594,21.1905563 51.419352,22.6616734 50.028291,23.9035442 C48.63723,25.1454149 46.9616589,26.1134227 45.0015275,26.8075966 C43.0413961,27.5017704 40.8670177,27.8488522 38.478327,27.8488522 L26.5489847,27.8488522 L26.5489847,0.0119814829 L38.478327,0.0119814829 C40.8670177,0.0119814829 43.0413961,0.362247458 45.0015275,1.06278992 C46.9616589,1.76333238 48.63723,2.73134016 50.028291,3.96684232 C51.419352,5.20234447 52.4977594,6.67027733 53.2635455,8.37068494 C54.0293316,10.0710925 54.4122189,11.9211337 54.4122189,13.920864 L54.4122189,13.920864 Z M47.1197234,13.920864 C47.1197234,12.5452534 46.9230107,11.3034013 46.5295793,10.1952705 C46.1361479,9.08713969 45.5705987,8.14779003 44.8329149,7.37719333 C44.095231,6.60659662 43.19246,6.0143287 42.1245748,5.60037179 C41.0566896,5.18641488 39.8412858,4.97943954 38.478327,4.97943954 L33.7150207,4.97943954 L33.7150207,22.8813941 L38.478327,22.8813941 C39.8412858,22.8813941 41.0566896,22.6744188 42.1245748,22.2604619 C43.19246,21.846505 44.095231,21.254237 44.8329149,20.4836403 C45.5705987,19.7130436 46.1361479,18.773694 46.5295793,17.6655632 C46.9230107,16.5574324 47.1197234,15.3092118 47.1197234,13.920864 L47.1197234,13.920864 Z" id="D" fill="#CDD11C"></path>
                        <path d="M68.856104,14.0840713 C68.856104,13.6926742 68.8006744,13.3118611 68.6898134,12.9416207 C68.5789525,12.5713802 68.3980768,12.2408133 68.1471809,11.9499101 C67.896285,11.6590069 67.5666245,11.4236432 67.1581893,11.2438122 C66.7497542,11.0639811 66.2538047,10.9740669 65.6703259,10.9740669 C64.6434033,10.9740669 63.8382147,11.2411649 63.2547359,11.775369 C62.6712571,12.3095731 62.2861669,13.0791328 62.0994537,14.0840713 L68.856104,14.0840713 Z M62.0294366,16.9401977 C62.2044802,18.3153766 62.6654215,19.3123663 63.4122744,19.9311968 C64.1591272,20.5500273 65.1218527,20.8594379 66.3004798,20.8594379 C66.9306369,20.8594379 67.473264,20.79068 67.9283774,20.6531621 C68.3834909,20.5156442 68.7890025,20.3622612 69.1449246,20.1930084 C69.5008466,20.0237556 69.8275898,19.8703726 70.125164,19.7328547 C70.4227382,19.5953368 70.7348946,19.5265789 71.0616428,19.5265789 C71.493417,19.5265789 71.8201602,19.6693838 72.0418822,19.9549979 L73.617267,21.7162759 C73.0571274,22.2980823 72.4532359,22.7714541 71.8055745,23.1364054 C71.157913,23.5013567 70.4927572,23.7869665 69.8100871,23.9932434 C69.1274169,24.1995202 68.444757,24.3423251 67.7620868,24.4216623 C67.0794167,24.5009996 66.4288476,24.5406676 65.8103601,24.5406676 C64.5383764,24.5406676 63.3451802,24.3529056 62.2307358,23.977376 C61.1162913,23.6018464 60.1418964,23.0438495 59.3075218,22.3033685 C58.4731471,21.5628876 57.813826,20.6425894 57.3295386,19.5424463 C56.8452513,18.4423032 56.6031112,17.1623482 56.6031112,15.7025429 C56.6031112,14.6023998 56.8102431,13.560453 57.224513,12.5766712 C57.6387829,11.5928894 58.2339223,10.7307709 59.0099491,9.99028998 C59.7859758,9.24980905 60.7253626,8.66272226 61.8281374,8.229012 C62.9309123,7.79530173 64.1766208,7.57844986 65.5653003,7.57844986 C66.7672665,7.57844986 67.8671075,7.7477001 68.8648562,8.08620567 C69.8626049,8.42471124 70.7203058,8.91659477 71.4379847,9.56187101 C72.1556636,10.2071473 72.7157948,10.9978633 73.1183951,11.9340427 C73.5209955,12.8702222 73.7222926,13.9306808 73.7222926,15.1154503 C73.7222926,15.4856907 73.7047885,15.7871677 73.6697798,16.0198903 C73.6347711,16.2526129 73.5705894,16.4377303 73.4772328,16.5752482 C73.3838762,16.7127661 73.2584301,16.8079694 73.1008908,16.8608609 C72.9433516,16.9137524 72.7420544,16.9401977 72.4969933,16.9401977 L62.0294366,16.9401977 Z M76.4354553,24.2867897 L76.4354553,7.83232776 L79.7962762,7.83232776 C80.4731116,7.83232776 80.9165488,8.10735941 81.1266012,8.65743097 L81.4241738,9.54600365 C81.7275828,9.26038957 82.0426566,8.9985806 82.3694047,8.76056887 C82.6961528,8.52255714 83.0491522,8.3162834 83.4284134,8.14174147 C83.8076746,7.96719953 84.2161036,7.82968371 84.6537127,7.72918986 C85.0913217,7.62869602 85.5726845,7.57844986 86.0978154,7.57844986 C87.1947555,7.57844986 88.1020513,7.83496976 88.8197302,8.34801727 C89.5374091,8.86106477 90.0829536,9.54599936 90.45638,10.4028416 C90.7597889,9.89508323 91.1302924,9.46137947 91.5679015,9.10171731 C92.0055105,8.74205514 92.4781213,8.45115628 92.9857478,8.229012 C93.4933743,8.00686772 94.0301667,7.84290654 94.5961411,7.73712355 C95.1621155,7.63134056 95.7251641,7.57844986 96.2853037,7.57844986 C97.3238959,7.57844986 98.2457785,7.71861022 99.0509792,7.99893514 C99.8561799,8.27926007 100.530088,8.68651847 101.072723,9.22072258 C101.615358,9.75492668 102.026705,10.4107714 102.306774,11.1882764 C102.586844,11.9657813 102.726877,12.8464115 102.726877,13.8301933 L102.726877,24.2867897 L97.3005517,24.2867897 L97.3005517,13.8301933 C97.3005517,12.1270872 96.4953631,11.2755469 94.8849617,11.2755469 C94.1497784,11.2755469 93.5400523,11.4950433 93.0557649,11.9340427 C92.5714775,12.3730421 92.3293375,13.005086 92.3293375,13.8301933 L92.3293375,24.2867897 L86.9030121,24.2867897 L86.9030121,13.8301933 C86.9030121,12.8887247 86.6987976,12.227591 86.2903624,11.8467722 C85.8819273,11.4659534 85.2809532,11.2755469 84.487422,11.2755469 C83.9972999,11.2755469 83.5334412,11.3760392 83.0958321,11.5770269 C82.6582231,11.7780146 82.2468767,12.0477572 81.8617807,12.3862627 L81.8617807,24.2867897 L76.4354553,24.2867897 Z M111.776588,7.83232776 L111.776588,24.2867897 L106.350262,24.2867897 L106.350262,7.83232776 L111.776588,7.83232776 Z M112.336724,3.32599489 C112.336724,3.71739196 112.249204,4.08498234 112.07416,4.42877706 C111.899117,4.77257178 111.659894,5.07404878 111.356485,5.3332171 C111.053076,5.59238543 110.700077,5.79865917 110.297476,5.95204451 C109.894876,6.10542984 109.466025,6.18212136 109.010912,6.18212136 C108.567468,6.18212136 108.153204,6.10542984 107.768108,5.95204451 C107.383012,5.79865917 107.041682,5.59238543 106.744108,5.3332171 C106.446534,5.07404878 106.213146,4.77257178 106.043937,4.42877706 C105.874728,4.08498234 105.790125,3.71739196 105.790125,3.32599489 C105.790125,2.92401953 105.874728,2.54849554 106.043937,2.19941167 C106.213146,1.85032781 106.446534,1.54356173 106.744108,1.27910426 C107.041682,1.01464678 107.383012,0.808373043 107.768108,0.660276856 C108.153204,0.512180669 108.567468,0.438133686 109.010912,0.438133686 C109.466025,0.438133686 109.894876,0.512180669 110.297476,0.660276856 C110.700077,0.808373043 111.053076,1.01464678 111.356485,1.27910426 C111.659894,1.54356173 111.899117,1.85032781 112.07416,2.19941167 C112.249204,2.54849554 112.336724,2.92401953 112.336724,3.32599489 L112.336724,3.32599489 Z M124.939803,17.5907599 C123.854532,17.6330731 122.961823,17.7176982 122.261649,17.8446378 C121.561474,17.9715774 121.007177,18.1302495 120.598742,18.3206588 C120.190307,18.5110682 119.907324,18.7279201 119.749785,18.971221 C119.592246,19.2145219 119.513477,19.4789754 119.513477,19.7645895 C119.513477,20.3252393 119.682684,20.719275 120.021101,20.9467085 C120.359519,21.1741419 120.855468,21.2878569 121.508965,21.2878569 C122.209139,21.2878569 122.821783,21.1767864 123.346914,20.9546421 C123.872044,20.7324979 124.403002,20.3728411 124.939803,19.875661 L124.939803,17.5907599 Z M115.172417,10.1172289 C116.269357,9.23923012 117.485892,8.58602995 118.822058,8.15760883 C120.158225,7.72918772 121.590644,7.51498038 123.119358,7.51498038 C124.216298,7.51498038 125.20528,7.67629702 126.086333,7.99893514 C126.967386,8.32157326 127.714227,8.77114423 128.32688,9.34766153 C128.939533,9.92417883 129.409226,10.6091134 129.735974,11.4024858 C130.062722,12.1958583 130.226094,13.0632658 130.226094,14.0047344 L130.226094,24.2867897 L127.740487,24.2867897 C127.227025,24.2867897 126.839018,24.2233209 126.576452,24.0963813 C126.313887,23.9694417 126.095086,23.7049882 125.920042,23.3030128 L125.534948,22.3985728 C125.079835,22.7476566 124.642232,23.0544227 124.222127,23.3188802 C123.802023,23.5833376 123.367338,23.8081231 122.918059,23.9932434 C122.46878,24.1783636 121.990335,24.3158794 121.482708,24.405795 C120.975082,24.4957105 120.412033,24.5406676 119.793546,24.5406676 C118.965006,24.5406676 118.21233,24.4428198 117.535494,24.2471213 C116.858659,24.0514227 116.283941,23.7631684 115.811323,23.3823496 C115.338705,23.0015309 114.974036,22.5281591 114.717306,21.9622201 C114.460575,21.3962811 114.332212,20.7430809 114.332212,20.0026 C114.332212,19.4102152 114.495583,18.8099058 114.822331,18.2016536 C115.14908,17.5934014 115.715045,17.038049 116.520246,16.5355798 C117.325447,16.0331106 118.410701,15.6126295 119.776041,15.274124 C121.141382,14.9356184 122.862618,14.7452119 124.939803,14.7028987 L124.939803,14.0047344 C124.939803,13.0421092 124.721001,12.3465965 124.283392,11.9181754 C123.845783,11.4897542 123.224388,11.2755469 122.419187,11.2755469 C121.77736,11.2755469 121.252237,11.3390157 120.843802,11.4659553 C120.435367,11.5928949 120.070698,11.7356998 119.749785,11.8943743 C119.428872,12.0530488 119.116715,12.1958537 118.813306,12.3227933 C118.509897,12.4497329 118.148146,12.5132017 117.728041,12.5132017 C117.354615,12.5132017 117.039541,12.4285766 116.78281,12.2593238 C116.52608,12.090071 116.31603,11.8890863 116.152656,11.6563638 L115.172417,10.1172289 Z M138.698163,9.60947312 C139.04825,9.31328075 139.410002,9.0382491 139.783428,8.78436992 C140.156855,8.53049074 140.556532,8.3162834 140.982471,8.14174147 C141.408411,7.96719953 141.869352,7.82968371 142.365309,7.72918986 C142.861266,7.62869602 143.400976,7.57844986 143.984454,7.57844986 C144.976368,7.57844986 145.854491,7.73447743 146.618848,8.04653725 C147.383205,8.35859707 148.027939,8.79230083 148.55307,9.34766153 C149.078201,9.90302223 149.474961,10.564156 149.743361,11.3310827 C150.011761,12.0980094 150.145959,12.9310379 150.145959,13.8301933 L150.145959,24.2867897 L144.719634,24.2867897 L144.719634,13.8301933 C144.719634,13.0262426 144.515419,12.3994878 144.106984,11.9499101 C143.698549,11.5003324 143.097575,11.2755469 142.304044,11.2755469 C141.708896,11.2755469 141.151682,11.3892619 140.632386,11.6166953 C140.11309,11.8441288 139.608388,12.1535394 139.118266,12.5449364 L139.118266,24.2867897 L133.69194,24.2867897 L133.69194,7.83232776 L137.052761,7.83232776 C137.729597,7.83232776 138.173034,8.10735941 138.383086,8.65743097 L138.698163,9.60947312 Z M148.990677,0.914154764 L144.439566,5.08727288 C144.171165,5.33057376 143.914439,5.50246854 143.669377,5.60296238 C143.424316,5.70345622 143.097573,5.75370239 142.689138,5.75370239 L139.433343,5.75370239 L141.813924,1.86619692 C142.012307,1.55942625 142.245695,1.32406262 142.514095,1.16009899 C142.782495,0.996135352 143.190924,0.914154764 143.739395,0.914154764 L148.990677,0.914154764 Z M166.985072,11.7357006 C166.821698,11.9155317 166.664161,12.0583366 166.512457,12.1641196 C166.360752,12.2699026 166.144869,12.3227933 165.864799,12.3227933 C165.596398,12.3227933 165.354258,12.2646135 165.138371,12.1482522 C164.922484,12.0318909 164.680344,11.9023087 164.411944,11.7595017 C164.143544,11.6166946 163.82847,11.4871124 163.466713,11.3707511 C163.104956,11.2543898 162.655684,11.19621 162.118884,11.19621 C161.453718,11.19621 160.879,11.3072805 160.394713,11.5294248 C159.910425,11.7515691 159.510748,12.0689133 159.19567,12.481467 C158.880591,12.8940206 158.647203,13.3991268 158.495499,13.9968007 C158.343794,14.5944746 158.267943,15.2688311 158.267943,16.0198903 C158.267943,17.5960569 158.603438,18.8072539 159.274439,19.6535179 C159.94544,20.4997818 160.87024,20.9229074 162.048867,20.9229074 C162.679024,20.9229074 163.177891,20.851505 163.545482,20.7086979 C163.913074,20.5658909 164.22523,20.4072188 164.481961,20.2326768 C164.738692,20.0581349 164.974997,19.8968183 165.190884,19.7487221 C165.406771,19.6006259 165.678085,19.5265789 166.004833,19.5265789 C166.436607,19.5265789 166.76335,19.6693838 166.985072,19.9549979 L168.560457,21.7162759 C168.000318,22.2980823 167.411013,22.7714541 166.792525,23.1364054 C166.174038,23.5013567 165.540973,23.7869665 164.893311,23.9932434 C164.24565,24.1995202 163.595081,24.3423251 162.941585,24.4216623 C162.288089,24.5009996 161.652106,24.5406676 161.033619,24.5406676 C159.925009,24.5406676 158.866011,24.3502611 157.856593,23.9694423 C156.847174,23.5886235 155.9603,23.0359157 155.195943,22.3113022 C154.431586,21.5866887 153.824777,20.6954804 153.375498,19.6376505 C152.92622,18.5798206 152.701584,17.3739126 152.701584,16.0198903 C152.701584,14.8351208 152.897046,13.7270606 153.287977,12.6956764 C153.678908,11.6642923 154.256543,10.7704394 155.0209,10.014091 C155.785257,9.25774266 156.730479,8.66272226 157.856593,8.229012 C158.982707,7.79530173 160.286762,7.57844986 161.768798,7.57844986 C163.192486,7.57844986 164.441112,7.78472359 165.514713,8.19727726 C166.588314,8.60983092 167.556874,9.21278492 168.420423,10.0061574 L166.985072,11.7357006 Z M184.174271,9.79988155 C184.174271,10.1383871 184.110089,10.4663095 183.981724,10.7836584 C183.853359,11.1010074 183.684152,11.3601719 183.4741,11.5611595 L175.894749,20.6372948 L183.999228,20.6372948 L183.999228,24.2867897 L169.645722,24.2867897 L169.645722,22.2875012 C169.645722,22.0865135 169.704069,21.8326381 169.820765,21.5258674 C169.937461,21.2190968 170.112502,20.933487 170.345893,20.6690295 L177.995262,11.4818227 L170.135842,11.4818227 L170.135842,7.83232776 L184.174271,7.83232776 L184.174271,9.79988155 Z M203.271435,7.83232776 L203.271435,24.2867897 L199.910615,24.2867897 C199.233779,24.2867897 198.790342,24.011758 198.58029,23.4616865 L198.265213,22.5096443 C197.915125,22.816415 197.553374,23.0940912 197.179948,23.3426812 C196.806521,23.5912713 196.406844,23.8028341 195.980905,23.977376 C195.554965,24.1519179 195.094024,24.2894338 194.598067,24.3899276 C194.10211,24.4904214 193.5624,24.5406676 192.978921,24.5406676 C191.987008,24.5406676 191.108885,24.38464 190.344528,24.0725802 C189.580171,23.7605204 188.935436,23.3241721 188.410306,22.7635222 C187.885175,22.2028724 187.488415,21.5417386 187.220015,20.7801011 C186.951615,20.0184636 186.817416,19.1827905 186.817416,18.2730567 L186.817416,7.83232776 L192.243742,7.83232776 L192.243742,18.2730567 C192.243742,19.0875858 192.447956,19.7169851 192.856392,20.1612737 C193.264827,20.6055622 193.865801,20.8277032 194.659332,20.8277032 C195.25448,20.8277032 195.811694,20.7139882 196.33099,20.4865548 C196.850286,20.2591213 197.354988,19.9497107 197.84511,19.5583137 L197.84511,7.83232776 L203.271435,7.83232776 Z M212.373659,0.533337902 L212.373659,13.8460607 L213.178855,13.8460607 C213.517273,13.8460607 213.774,13.8011036 213.949043,13.7111881 C214.124087,13.6212725 214.299128,13.470534 214.474172,13.2589681 L217.90501,8.62569623 C218.115062,8.36123875 218.354285,8.16289862 218.622685,8.03066988 C218.891085,7.89844114 219.235333,7.83232776 219.655437,7.83232776 L224.626652,7.83232776 L219.935506,13.687387 C219.492062,14.216302 218.966939,14.6500057 218.360121,14.9885113 C218.628521,15.1683424 218.873579,15.3772607 219.0953,15.6152724 C219.317022,15.8532841 219.527072,16.1203822 219.725454,16.4165745 L224.836703,24.2867897 L219.935506,24.2867897 C219.527071,24.2867897 219.176989,24.2259654 218.885249,24.1043149 C218.59351,23.9826645 218.348452,23.7684572 218.15007,23.4616865 L214.719232,17.638362 C214.555858,17.3739045 214.386651,17.2020097 214.211608,17.1226725 C214.036564,17.0433352 213.774002,17.0036672 213.423915,17.0036672 L212.373659,17.0036672 L212.373659,24.2867897 L206.947333,24.2867897 L206.947333,0.533337902 L212.373659,0.533337902 Z" id="emiańczuk" fill="#FFFFFF"></path>
                    </g>
                </g>
            </g>
        </g>
    </g>
</svg>